<?xml version="1.0" encoding="UTF-8"?>
<svg id="Calque_1" xmlns="http://www.w3.org/2000/svg" version="1.1" viewBox="0 0 1152 768">
  <!-- Generator: Adobe Illustrator 29.7.1, SVG Export Plug-In . SVG Version: 2.1.1 Build 8)  -->
  <defs>
    <style>
      .st0 {
        fill: #FFFFFF00;
      }

      .st1 {
        fill: #FFFFFF00;
      }

      .st2 {
        fill: #42604e;
      }

      .st3 {
        fill: #FFFFFF00;
      }

      .st4 {
        fill: #FFFFFF00;
      }

      .st5 {
        fill: #42604e;
      }

      .st6 {
        fill: #FFFFFF00;
      }

      .st7 {
        fill: #FFFFFF00;
      }

      .st8 {
        fill: #FFFFFF00;
      }
    </style>
  </defs>
  <path class="st7" d="M34.24,8.08v749.21h1079.74V8.08H34.24ZM459.92,31.43c3.02-3.1,53.67-2.44,61.98-2.67,63.4-1.79,131.95-4.1,195.31-1.49,104.62,4.31,178.66,40.99,240.51,124.63.77,1.04,2.65,1.8,3.92,3.58,28.89,40.62,47.6,92.84,54.56,142.08-12.94,15.24-26.67,29.62-36.36,47.29-10.45,19.08-15.36,37.38-19.87,58.52-.22,1.01.69,4.75-2.09,3.36-1.09-.54-11.31-16.86-11.64-18.61-2.37-12.75.64-35.19-.01-49.48-4.88-107.63-53.43-236.6-162.02-276.6-40.18-14.8-102.79-20.35-145.43-16.82-23.11,1.92-34.33,11.28-36.52,34.98l.03,469.5c-24.64,1.81-46.93,11.55-68.75,22l.06-464.02c-1.58-14.56-2.19-28.69-8.72-42.15-12.2-25.12-40.09-27.56-64.92-31.33-1.44-.3-.91-1.88-.04-2.77ZM94.75,27.33l206.34-1.37c-.18,1.11.27,3.81,0,4.11-1.13,1.21-26.66,4.75-32.41,6.81-22.4,7.99-36.37,29.03-36.37,52.99v48.81c-3.24.66-2.22-.41-3.1-1.78-6.01-9.37-6.31-16.06-18.18-21.64-14.08-6.61-25.22-3.72-36.55,6.18-3.26,2.86-3.86,8.66-9.57,7.61-1.23-13.64,1.66-30.01,0-43.3-4.86-38.84-29.56-47.44-62.98-53.92-4.91-.95-8.35,1.63-7.18-4.5ZM125.02,738.04c-27.03-.05-54.13.05-81.16,0v-4.12c15.15-1.33,30.56-2.76,45.41-6.17,9.59-2.21,23.45-6.33,31.62-11.7,3.46-2.27,11-9.72,13.72-13.1,27.65-34.26,34.18-137.09,31.67-180.73-1.04-18.25-8.71-37.88-11.18-54.86l-6.01-22.16-.02-.04c-2.45-6.08-4.46-14.34-7.3-20.1-14.25-28.96-43.54-37.34-56.44-67.32-8.47-19.67-7.89-35.99-4.32-56.85,28.93,13.98,58.64,34.38,61.86,69.45,1.05,11.39-1.15,24.25.18,35.56,1.34,11.4,8.81,24.69,12.02,35.55.31,1.03.58,2.03.79,3.01l5.21,19.75c1.82,5.05,2.81,10.13,3.88,16.07.41,2.28-.86,2.36,2.7,2.06.99-58.67-1.81-116.13-30.02-168.62-6.4-11.93-37.09-62.98-47.02-67.11-5.36-2.22-13.46-.62-21.54-4.59-24.01-11.77-14.46-46.79,10.55-36.66,19.17,7.77,13.9,24.47,19.39,38.36,3.1,7.83,16.47,21.18,21.68,29.19,12.66,19.44,27.96,45.17,36.63,66.5,4.02,9.88,5.71,20.83,11.03,30.21,2.02-17.84.25-35.92-.69-53.61-1.54-29.03-3.68-55.6-11.01-83.85-3.34-12.9-10.27-35.99-16.77-47.17-7.13-12.27-23.79-19.98-32.74-31.88-18.36-24.41-13.71-52.57-8.25-80.43,30.43,10.79,53.78,38.55,53.77,72.18,0,9.05-3.87,19.9-4.24,28.89-.76,18.81,10.27,38.67,13.74,57.03l12.36,49.48c2.42-17.95,4.66-36,7.24-53.94.99-6.85,5.27-18.85,4.95-25.17-.32-6.39-12.28-20.62-13.53-32.94-1.73-17.02,8.75-48.11,30.28-42.63,18.7,4.77,18.58,37.52,12.17,52.09-5.73,13-18.35,13.81-23.39,31.63-8.25,29.2-12.47,76.2-13.58,106.71-.24,6.83.4,13.81,0,20.62h1.38c2.58-14.97,6.62-28.19,11-42.61,6.7-22.08,7.59-24.21,19.26-42.62,1.91-3.01,11.38-17.6,11.82-19.23.89-3.3-1.16-7.27-.74-11.54.95-9.7,10.53-18.16,20.07-18.64,16.34-.83,12.64,24.36-1.71,30.04-4.52,1.78-8.93.76-12.35,2.77-2.2,1.3-12.26,17.27-14.34,20.73-6.31,10.45-13.96,26.36-17.88,38.49-18.05,55.75-16.54,107.15-16.51,164.96.01,12.53-1.15,26.38,1.38,38.49.51-2.2.95-4.63,1.37-6.87,1.27-6.79,3.02-13.92,4.13-20.62.47-2.81.87-5.44,1.38-8.25.08-.44-.09-.93,0-1.37,1.04-5.72,1.07-11.81,2.75-19.25,1.57-6.99,3.68-13.72,5.5-20.62,1.88-7.15,5.24-14.37,6.88-20.62.53-2.05.94-5.78,1.37-8.25.21-1.19,1.34-2.41,1.38-2.75,1.43-12.79-5.96-29.65-5.56-43.35.63-21.63,11.07-40.37,24.78-56.35,3.03-3.53,32.81-32.32,35.78-29.52,12.11,45.16,9.81,86.04-26.84,118.19-4.82,4.24-12.65,7.79-17.16,12.41-5.04,5.16-12.91,23.19-15.13,30.24-2.16,6.87-1.95,15.52-5.5,21.99.36.67-.63,5.04,2.79,2.11,2.8-2.41,7.71-15.92,10.93-20.32,1.74-2.38,9.86-10.5,12.4-12.73,7.57-6.63,16.86-10.72,26.14-14.41,1.51,1.68-3.3,16.68-4.45,19.59-8.29,20.98-27.01,30.96-45.06,42.26-.87,1.85-1.9,3.64-2.75,5.5-.69,1.51-.78,3.8-1.38,5.5-1.83,5.18-5.76,14.58-6.87,19.24-2.46,10.24-4.24,26.35-5.51,37.12-2.88,24.52-2.15,48.97-4.14,73.53-1.17,14.44-3.68,30.09-6.57,44.32-1.35,2.35,2.01,2.17,2.44,1.75,2.68-2.68,12.59-53.84,13.6-61.34,5.66-41.73-1.32-92.84,31.76-123.61,4.3-4,10.34-8.18,15.18-11.63v205.52c0,23.23,12.9,45.94,36.04,51.95,39.17,10.19,111.13,1.84,148.23-14.89,54.44-24.55,74.64-78.79,123.39-108.99,23.91-14.82,53.4-23.06,81.59-22.23l-42.55,18.63c-56.71,34.74-79.33,98.47-99.31,158.5-118.66.18-237.39.43-356.05.19ZM1075.2,433.28c-14.99,26.2-33.77,49.96-60.71,64.43-8.24,4.42-20.06,7.28-26.92,11.57-9.92,6.21-32.36,41.76-38.88,53.26-10.41,18.37-17.08,38.82-28.63,56.62-.53,1.74.33,2.75,2.02,2.02,1.84-.79,24.05-25.83,26-29.01,3.36-5.46,5.52-13.85,9.14-19.43,17.42-26.83,51.33-44.33,82.21-50.11,2.27-.43,15.11-3.77,13.99.22-.89,3.16-11.81,19-14.52,22.62-12.46,16.6-30.55,33.86-49.59,42.54-10.88,4.95-21.79,5.67-32.16,9.1-10.83,3.59-31.58,34.68-40.53,44.72-53.79,60.35-113.93,87.64-194.65,94.84-4.76.43-10.62,1.12-15.13,1.37-1.82.11-3.67-.08-5.5,0-9.56.42-19.3-.14-28.88,0-3.21.05-6.43-.04-9.63,0-52.69.65-105.48-.47-158.18,0,20.38-56.79,36.17-128.22,97.66-153.96v84.54c0,20.85,17.25,40.1,37.13,44.68,14.7,3.39,44.64,2.19,60.53,1.37,3.24-.16,8.52-1.01,12.37-1.37,55.89-5.16,103.18-18.63,142.42-60.43,16.74-17.84,51.17-66.2,48.78-90.79-.3-3.04-1.5-5.56-2.76-8.25-9.05-19.36-23.38-35.2-23.38-59.79v-25.44c6.03,3.04,13.91,9,18.61,13.71,4.47,4.48,5.69,7.79,8.9,12.41,10.64,15.3,17.46,27.13,14.77,47.07-1.11,8.25-6.05,15.63-7.89,23.04-1.93,7.75-2.11,16.08-4.23,23.96-5.57,20.69-16.28,39.71-27.42,57.82,1.74,2.47,2.91-.58,3.88-1.61,35.02-37.29,63.51-104.87,58.01-156.44-1.33-12.42-6.25-12.04-11.58-20.05-7.83-11.76-21.41-37.59-21.41-51.46v-36.43c8.59,4,18.68,13.97,24.71,21.35,16.81,20.59,23.13,43.41,18.98,69.74-2.38,15.04-4.45,22.08-3.8,38.84.06,1.66-1.04,5.11,1.35,4.78,5.89-19.98,11.44-40.23,17.54-60.15,3.57-11.66,11.57-27.81,13.5-38.75,2.9-16.47.76-25.97,7.12-43.74,14.76-41.24,56.98-75.13,95.27-93.79,4.24,4.72-22.54,59.96-27.26,68.28-19.5,34.26-33.66,42.14-61.41,66.47-16.78,14.71-30.27,80.28-37.46,104.16-2.52,8.38-5.77,18.38-6.6,26.4,1.95-4.29,6.59-7.57,8.95-10.69,3.23-4.27,16.77-23.23,18.22-26.78,3.63-8.91,4.57-20.08,9.46-30.41,18.6-39.32,61.16-58.86,100.23-72.33,1.68,1.74-10.59,25.7-12.64,29.28Z"/>
  <path class="st5" d="M957.72,151.9c.77,1.04,2.66,1.8,3.92,3.58,28.89,40.62,47.6,92.84,54.56,142.08-12.94,15.23-26.67,29.61-36.36,47.29-10.45,19.08-15.37,37.38-19.88,58.51-.22,1.01.7,4.75-2.08,3.37-1.09-.54-11.31-16.86-11.64-18.62-2.38-12.75.63-35.18-.01-49.48-4.88-107.62-53.43-236.6-162.02-276.6-40.17-14.8-102.79-20.35-145.42-16.82-23.11,1.92-34.33,11.28-36.52,34.98l.04,469.49c-24.64,1.82-46.93,11.55-68.75,22l.06-464.02c-1.58-14.55-2.19-28.69-8.72-42.15-12.2-25.12-40.08-27.56-64.92-31.33-1.44-.3-.91-1.88-.03-2.77,3.01-3.1,53.67-2.44,61.97-2.67,63.4-1.78,131.95-4.1,195.32-1.48,104.62,4.31,178.66,40.99,240.5,124.63Z"/>
  <path class="st2" d="M164.91,85.75c-4.86-38.84-29.55-47.44-62.97-53.92-4.91-.95-8.35,1.63-7.18-4.5l206.34-1.37c-.18,1.11.27,3.81,0,4.11-1.13,1.21-26.65,4.76-32.4,6.81-22.4,7.99-36.38,29.03-36.38,53v48.8c-3.23.66-2.21-.4-3.09-1.77-6.02-9.37-6.31-16.07-18.18-21.64-14.08-6.62-25.23-3.72-36.55,6.18-3.27,2.86-3.86,8.66-9.58,7.61-1.23-13.65,1.66-30.01,0-43.3Z"/>
  <path class="st2" d="M622.93,560.72l-42.55,18.63c-56.71,34.74-79.33,98.47-99.31,158.5-118.66.18-237.39.43-356.05.19-27.03-.05-54.13.05-81.16,0v-4.12c15.15-1.33,30.56-2.76,45.41-6.17,9.59-2.21,23.45-6.33,31.62-11.7,3.46-2.27,11-9.72,13.72-13.1,27.65-34.26,34.18-137.09,31.67-180.73-1.04-18.25-8.71-37.88-11.18-54.86l-6.01-22.16-.02-.04c-2.45-6.08-4.46-14.34-7.3-20.1-14.25-28.96-43.54-37.34-56.44-67.32-8.47-19.67-7.89-35.99-4.32-56.85,28.93,13.98,58.64,34.38,61.86,69.45,1.05,11.39-1.15,24.25.18,35.56,1.34,11.4,8.81,24.69,12.02,35.55l.79,3.01,5.21,19.75c1.82,5.05,2.81,10.13,3.88,16.07.41,2.28-.86,2.36,2.7,2.06.99-58.67-1.81-116.13-30.02-168.62-6.4-11.93-37.09-62.98-47.02-67.11-5.36-2.22-13.46-.62-21.54-4.59-24.01-11.77-14.46-46.79,10.55-36.66,19.17,7.77,13.9,24.47,19.39,38.36,3.1,7.83,16.47,21.18,21.68,29.19,12.66,19.44,27.96,45.17,36.63,66.5,4.02,9.88,5.71,20.83,11.03,30.21,2.02-17.84.25-35.92-.69-53.61-1.54-29.03-3.68-55.6-11.01-83.85-3.34-12.9-10.27-35.99-16.77-47.17-7.13-12.27-23.79-19.98-32.74-31.88-18.36-24.41-13.71-52.57-8.25-80.43,30.43,10.79,53.78,38.55,53.77,72.18,0,9.05-3.87,19.9-4.24,28.89-.76,18.81,10.27,38.67,13.74,57.03l12.36,49.48c2.42-17.95,4.66-36,7.24-53.94.99-6.85,5.27-18.85,4.95-25.17-.32-6.39-12.28-20.62-13.53-32.94-1.73-17.02,8.75-48.11,30.28-42.63,18.7,4.77,18.58,37.52,12.17,52.09-5.73,13-18.35,13.81-23.39,31.63-8.25,29.2-12.47,76.2-13.58,106.71-.24,6.83.4,13.81,0,20.62h1.38c2.58-14.97,6.62-28.19,11-42.61,6.7-22.08,7.59-24.21,19.26-42.62,1.91-3.01,11.38-17.6,11.82-19.23.89-3.3-1.16-7.27-.74-11.54.95-9.7,10.53-18.16,20.07-18.64,16.34-.83,12.64,24.36-1.71,30.04-4.52,1.78-8.93.76-12.35,2.77-2.2,1.3-12.26,17.27-14.34,20.73-6.31,10.45-13.96,26.36-17.88,38.49-18.05,55.75-16.54,107.15-16.51,164.96.01,12.53-1.15,26.38,1.38,38.49.51-2.2.95-4.63,1.37-6.87,1.27-6.79,3.02-13.92,4.13-20.62.47-2.81.87-5.44,1.38-8.25.08-.44-.09-.93,0-1.37,1.04-5.72,1.07-11.81,2.75-19.25,1.57-6.99,3.68-13.72,5.5-20.62,1.88-7.15,5.24-14.37,6.88-20.62.53-2.05.94-5.78,1.37-8.25.21-1.19,1.34-2.41,1.38-2.75,1.43-12.79-5.96-29.65-5.56-43.35.63-21.63,11.07-40.37,24.78-56.35,3.03-3.53,32.81-32.32,35.78-29.52,12.11,45.16,9.81,86.04-26.84,118.19-4.82,4.24-12.65,7.79-17.16,12.41-5.04,5.16-12.91,23.19-15.13,30.24-2.16,6.87-1.95,15.52-5.5,21.99.36.67-.63,5.04,2.79,2.11,2.8-2.41,7.71-15.92,10.93-20.32,1.74-2.38,9.86-10.5,12.4-12.73,7.57-6.63,16.86-10.72,26.14-14.41,1.51,1.68-3.3,16.68-4.45,19.59-8.29,20.98-27.01,30.96-45.06,42.26-.87,1.85-1.9,3.64-2.75,5.5-.69,1.51-.78,3.8-1.38,5.5-1.83,5.18-5.76,14.58-6.87,19.24-2.46,10.24-4.24,26.35-5.51,37.12-2.88,24.52-2.15,48.97-4.14,73.53-1.17,14.44-3.68,30.09-6.57,44.32-1.35,2.35,2.01,2.17,2.44,1.75,2.68-2.68,12.59-53.84,13.6-61.34,5.66-41.73-1.32-92.84,31.76-123.61,4.3-4,10.34-8.18,15.18-11.63v205.52c0,23.23,12.9,45.94,36.04,51.95,39.17,10.19,111.13,1.84,148.23-14.89,54.44-24.55,74.64-78.79,123.39-108.99,23.91-14.82,53.4-23.06,81.59-22.23Z"/>
  <path class="st8" d="M155.86,444.46l-.79-3.01c.31,1.03.58,2.03.79,3.01Z"/>
  <path class="st2" d="M948.69,562.54c6.52-11.5,28.96-47.05,38.88-53.26,6.86-4.29,18.68-7.15,26.92-11.57,26.94-14.47,45.72-38.23,60.71-64.43,2.05-3.58,14.32-27.54,12.64-29.28-39.07,13.47-81.63,33.01-100.23,72.33-4.89,10.33-5.83,21.5-9.46,30.41-1.45,3.55-14.99,22.51-18.22,26.78-2.36,3.12-7,6.4-8.95,10.69.83-8.02,4.08-18.02,6.6-26.4,7.19-23.88,20.68-89.45,37.46-104.16,27.75-24.33,41.91-32.21,61.41-66.47,4.72-8.32,31.5-63.56,27.26-68.28-38.29,18.66-80.51,52.55-95.27,93.79-6.36,17.77-4.22,27.27-7.12,43.74-1.93,10.94-9.93,27.09-13.5,38.75-6.1,19.92-11.65,40.17-17.54,60.15-2.39.33-1.29-3.12-1.35-4.78-.65-16.76,1.42-23.8,3.8-38.84,4.15-26.33-2.17-49.15-18.98-69.74-6.03-7.38-16.12-17.35-24.71-21.35v36.43c0,13.87,13.58,39.7,21.41,51.46,5.33,8.01,10.25,7.63,11.58,20.05,5.5,51.57-22.99,119.15-58.01,156.44-.97,1.03-2.14,4.08-3.88,1.61,11.14-18.11,21.85-37.13,27.42-57.82,2.12-7.88,2.3-16.21,4.23-23.96,1.84-7.41,6.78-14.79,7.89-23.04,2.69-19.94-4.13-31.77-14.77-47.07-3.21-4.62-4.43-7.93-8.9-12.41-4.7-4.71-12.58-10.67-18.61-13.71v25.44c0,24.59,14.33,40.43,23.38,59.79,1.26,2.69,2.46,5.21,2.76,8.25,2.39,24.59-32.04,72.95-48.78,90.79-39.24,41.8-86.53,55.27-142.42,60.43-3.85.36-9.13,1.21-12.37,1.37-15.89.82-45.83,2.02-60.53-1.37-19.88-4.58-37.13-23.83-37.13-44.68v-84.54c-61.49,25.74-77.28,97.17-97.66,153.96,52.7-.47,105.49.65,158.18,0,3.2-.04,6.42.05,9.63,0,9.58-.14,19.32.42,28.88,0,1.83-.08,3.68.11,5.5,0,4.51-.25,10.37-.94,15.13-1.37,80.72-7.2,140.86-34.49,194.65-94.84,8.95-10.04,29.7-41.13,40.53-44.72,10.37-3.43,21.28-4.15,32.16-9.1,19.04-8.68,37.13-25.94,49.59-42.54,2.71-3.62,13.63-19.46,14.52-22.62,1.12-3.99-11.72-.65-13.99-.22-30.88,5.78-64.79,23.28-82.21,50.11-3.62,5.58-5.78,13.97-9.14,19.43-1.95,3.18-24.16,28.22-26,29.01-1.69.73-2.55-.28-2.02-2.02,11.55-17.8,18.22-38.25,28.63-56.62ZM1019.01,460.98l23.44-18.49c.59,2.58-1.45,3.26-2.74,4.81-9.28,11.09-26.93,30.15-37.83,39.18-1.54,1.28-2.22,3.33-4.81,2.74-2.22-2.23,20.2-24.66,21.94-28.24ZM1029.37,340.74c1.72-1.76,3.39-4.46,6.2-4.1l-39.87,60.47c6.22-19.03,19.7-41.97,33.67-56.37ZM995,398.49l.69.69-.69.69v-1.38ZM928.31,420.49c8.85,10.88,13,27.33,13.72,41.23l-13.72-41.23ZM903.4,540.58c-.39-1.72,1.5-2.97,1.51-3.24.02-.46.01-.92,0-1.38-.17-10.02-6.48-20.58-8.26-29.56-.81-4.07,1.94-.66,2.76-.68,4.11,12.8,10.09,24.48,8.24,38.48-2.47.56-.9-2.21-1.36-2.74-.16-.18-2.54.64-2.89-.88ZM969.56,577.89c10.66-12.75,27.42-24.57,42.63-30.92l-45.38,35.73c-.59-2.58,1.45-3.27,2.75-4.81ZM918.66,625.3h-2.74v-1.34h2.74v1.34Z"/>
  <path class="st1" d="M1035.57,336.64l-39.87,60.47c6.22-19.03,19.7-41.97,33.67-56.37,1.72-1.76,3.39-4.46,6.2-4.1Z"/>
  <path class="st1" d="M1039.71,447.3c-9.28,11.09-26.93,30.15-37.83,39.18-1.54,1.28-2.22,3.33-4.81,2.74-2.22-2.23,20.2-24.66,21.94-28.24l23.44-18.49c.59,2.58-1.45,3.26-2.74,4.81Z"/>
  <path class="st3" d="M1012.19,546.97l-45.38,35.73c-.59-2.58,1.45-3.27,2.75-4.81,10.66-12.75,27.42-24.57,42.63-30.92Z"/>
  <path class="st4" d="M942.03,461.72l-13.72-41.23c8.85,10.88,13,27.33,13.72,41.23Z"/>
  <rect class="st7" x="915.92" y="623.96" width="2.74" height="1.34"/>
  <polygon class="st1" points="995.69 399.18 995 399.87 995 398.49 995.69 399.18"/>
  <path class="st6" d="M907.65,544.2c-2.47.56-.9-2.21-1.36-2.74l-1.38-4.12c.02-.46.01-.92,0-1.38-.17-10.02-6.48-20.58-8.26-29.56-.81-4.07,1.94-.66,2.76-.68,4.11,12.8,10.09,24.48,8.24,38.48Z"/>
  <path class="st0" d="M906.29,541.46c-.16-.18-2.54.64-2.89-.88-.39-1.72,1.5-2.97,1.51-3.24l1.38,4.12Z"/>
</svg>